<svg xmlns="http://www.w3.org/2000/svg" width="24px" height="24px" fill="none" stroke-width="2.4" viewBox="0 0 24 24" color="#000000"><path stroke="#000000" stroke-width="2.4" stroke-linecap="round" d="M1 20v-1a7 7 0 0 1 7-7v0a7 7 0 0 1 7 7v1"></path><path stroke="#000000" stroke-width="2.4" stroke-linecap="round" d="M13 14v0a5 5 0 0 1 5-5v0a5 5 0 0 1 5 5v.5"></path><path stroke="#000000" stroke-width="2.4" stroke-linecap="round" stroke-linejoin="round" d="M8 12a4 4 0 1 0 0-8 4 4 0 0 0 0 8ZM18 9a3 3 0 1 0 0-6 3 3 0 0 0 0 6Z"></path></svg>