<svg width="106" height="31" viewBox="0 0 106 31" fill="none" xmlns="http://www.w3.org/2000/svg">
<path d="M70.1225 30.5223C69.7537 30.347 69.3968 30.2057 69.093 29.9901C68.1278 29.305 68.1079 28.3096 68.3245 27.297C68.6334 25.8525 69.5612 24.7729 70.5999 23.7987C72.4249 22.0869 74.542 20.7976 76.7412 19.6233C77.103 19.4301 77.4162 19.0261 77.5989 18.6462C77.8929 18.0347 78.0595 17.3621 78.1786 16.621C78.0376 16.7288 77.8993 16.8404 77.755 16.9437C77.1244 17.3949 76.5361 17.9307 75.8516 18.276C74.1941 19.1124 72.5724 18.1607 72.3895 16.3099C72.3752 16.1659 72.3795 16.0202 72.3659 15.8761C72.3193 15.3838 72.1966 15.3342 71.7356 15.5485C71.0793 15.8534 70.3931 16.0984 69.7541 16.4343C69.4246 16.6075 69.0914 16.8724 68.8947 17.1813C68.1703 18.3188 67.4387 19.4413 66.2409 20.1442C65.8229 20.3896 65.3812 20.6201 64.921 20.7644C62.9933 21.3689 61.567 20.5518 61.0962 18.6103C61.0669 18.4897 61.0299 18.371 60.9739 18.1703C60.833 18.2957 60.733 18.379 60.6393 18.4688C59.948 19.1314 59.2825 19.8242 58.5556 20.4452C58.2522 20.7045 57.8343 20.8678 57.4412 20.9766C56.7345 21.1721 55.8738 20.7878 55.6497 20.0977C55.4422 19.459 55.4104 18.7616 55.3218 18.0874C55.295 17.8829 55.3369 17.6694 55.3558 17.2895C55.0606 17.5163 54.8813 17.639 54.7192 17.7811C53.7811 18.6039 52.8836 19.4787 51.8961 20.2368C51.4106 20.6095 50.7822 20.8542 50.1803 21.0042C49.3656 21.2072 48.2422 20.7619 48.3153 19.5434C48.3245 19.3898 48.2733 19.2325 48.2332 18.9638C47.9698 19.122 47.7791 19.2312 47.5937 19.3488C46.8766 19.8034 46.2031 20.3542 45.4363 20.6975C43.8332 21.4152 42.4971 20.6748 42.1187 18.9601C42.0728 18.7523 42.0172 18.5466 41.9342 18.2104C41.6896 18.4551 41.5091 18.6136 41.3544 18.7942C40.6398 19.6287 39.8386 20.3587 38.8192 20.7994C38.5113 20.9325 38.1566 21.0285 37.8254 21.0228C37.0749 21.01 36.5448 20.4161 36.7235 19.6678C36.9484 18.7256 37.2801 17.7991 37.6598 16.9056C38.233 15.5572 38.9009 14.2491 39.4984 12.9105C39.658 12.5529 39.7436 12.1516 39.7988 11.7613C39.8614 11.319 39.6244 11.0881 39.1668 11.0826C38.4083 11.0734 37.7974 11.4463 37.249 11.8898C35.5437 13.2692 34.1401 14.9136 33.0229 16.805C32.5355 17.6301 31.9835 18.417 31.4844 19.2356C31.2212 19.6672 31.013 20.1318 30.7716 20.577C30.5855 20.9203 30.3118 20.9631 29.9402 20.8699C29.6059 20.7862 29.2198 20.7132 28.9001 20.7984C26.6809 21.3897 25.1003 19.8729 24.9248 17.8094C24.7562 15.8271 25.0358 13.9153 25.7509 12.0622C25.9617 11.5159 25.8377 11.3152 25.255 11.298C23.7336 11.2531 22.2114 11.2327 20.6904 11.1777C20.162 11.1586 19.8197 11.3683 19.5076 11.7856C17.9138 13.9165 16.3748 16.0958 14.6619 18.1283C13.0514 20.0392 11.2471 21.7706 8.8981 22.8329C6.65874 23.8457 3.41893 23.3684 1.78758 21.5567C1.16478 20.865 0.816905 19.9249 0.354665 19.092C0.233918 18.8745 0.154124 18.6342 0.0277609 18.3791C-1.00545e-07 17.3013 -1.084e-07 16.2487 4.29582e-10 15.1453C0.110066 14.8717 0.259399 14.6598 0.324162 14.4247C1.01693 11.9098 2.45668 9.98437 4.75834 8.7102C7.06674 7.43229 10.2696 8.01963 11.8651 10.0535C12.5437 10.9186 12.7958 11.929 12.7157 13.0137C12.5099 15.7994 10.5236 18.2758 7.85067 19.0859C7.48302 19.1973 7.04761 19.4025 6.81141 18.891C6.64461 18.5297 6.95053 18.174 7.52759 17.9946C9.75024 17.3034 11.1417 15.8548 11.5694 13.545C11.906 11.7274 11.0563 10.2375 9.32421 9.56496C7.01687 8.6691 4.77607 9.34271 3.09756 11.3114C1.81204 12.8192 1.15976 14.5487 1.1274 16.4814C1.09291 18.5411 1.72699 20.3786 3.61413 21.4844C5.48706 22.5819 7.41369 22.5317 9.30114 21.4403C11.2439 20.3169 12.8771 18.8216 14.2277 17.0592C16.5181 14.0707 18.7038 11.0024 20.9662 7.99222C21.8464 6.82094 22.8166 5.7171 23.7426 4.57992C23.9096 4.37485 24.0609 4.15702 24.2052 3.96406C22.57 3.11943 21.0312 2.18205 19.3834 1.51143C17.5359 0.759542 15.5849 0.719608 13.7387 1.62383C12.1211 2.41609 11.292 4.72459 11.941 6.40798C12.2932 7.32148 13.1291 7.9236 14.1985 7.88892C14.8022 7.86935 15.4205 7.72114 15.9952 7.52355C16.8476 7.23049 17.3187 6.54995 17.3648 5.66864C17.4115 4.77585 17.1068 4.00653 16.292 3.49024C16.1049 3.37169 16.0239 3.08626 15.8941 2.87763C16.168 2.82071 16.5115 2.63312 16.7014 2.73392C17.1033 2.94721 17.5007 3.25627 17.7664 3.62259C18.9395 5.24017 18.257 7.65637 16.3855 8.32444C15.5732 8.6144 14.6401 8.79388 13.7919 8.71233C11.6184 8.50338 10.6825 7.03201 10.8202 4.90991C11.0111 1.96692 13.0249 0.223315 15.9859 0.0863173C18.1469 -0.0136696 20.0557 0.631123 21.8725 1.69664C22.2165 1.89838 22.572 2.08285 22.9031 2.30385C24.161 3.14352 25.3452 2.88081 26.4895 2.07507C27.3381 1.47744 28.1887 0.891871 29.2481 0.727938C29.3556 0.711305 29.4621 0.686085 29.5701 0.674914C30.3062 0.598782 30.5738 0.895623 30.3452 1.59358C30.0073 2.6258 29.6395 3.64853 29.2721 4.67085C28.1385 7.8244 27.0106 10.9803 26.3325 14.2715C26.0913 15.4423 25.9206 16.6201 26.123 17.8264C26.4156 19.57 27.8452 20.2114 29.3484 19.244C30.1084 18.7549 30.7068 18.1326 31.1167 17.3051C32.1779 15.1631 33.2784 13.0405 34.365 10.9111C34.4388 10.7664 34.4952 10.5763 34.6175 10.5013C34.7972 10.3913 35.0735 10.2657 35.226 10.3331C35.3793 10.4008 35.5023 10.694 35.5099 10.8934C35.5197 11.1461 35.3997 11.4039 35.4379 11.7514C35.5895 11.6601 35.7443 11.5736 35.892 11.4765C36.5547 11.0405 37.1844 10.5398 37.8884 10.1865C38.3206 9.96969 38.864 9.90841 39.3601 9.89801C40.3382 9.8775 40.8628 10.4144 40.9088 11.4C40.9649 12.5999 40.5001 13.6665 40.015 14.7234C39.3959 16.0724 38.7532 17.4109 38.1579 18.7703C38.0339 19.0536 38.0727 19.408 38.0364 19.7296C38.3497 19.6164 38.7163 19.5721 38.9674 19.3785C40.2832 18.3637 41.416 17.1484 42.2725 15.7388C42.7112 15.0168 42.8196 14.0989 43.1044 13.2789C44.0107 10.6686 45.312 8.23964 46.5863 5.79944C46.8868 5.22398 46.8346 5.09691 46.1893 5.10604C45.828 5.11115 45.4678 5.18103 45.1064 5.19C44.4821 5.20548 44.1072 4.91163 44.1074 4.43803C44.1076 3.96315 44.4111 3.7101 45.0441 3.69406C45.6604 3.67844 46.2791 3.65815 46.8935 3.69485C47.5088 3.7316 47.9236 3.52766 48.2114 2.96418C48.4905 2.41757 48.8428 1.90743 49.1746 1.38869C49.3547 1.10724 49.5689 0.808442 49.9594 1.02119C50.3582 1.23838 50.4373 1.60461 50.2351 1.99988C50.0541 2.35376 49.8363 2.68924 49.6288 3.0292C49.3087 3.55376 49.3703 3.68645 50.0004 3.67957C50.8693 3.67008 51.7377 3.61197 52.6067 3.59663C53.5313 3.58032 54.4573 3.56572 55.3804 3.6043C55.6153 3.61412 55.9101 3.77395 56.0581 3.95963C56.3897 4.37569 56.1951 4.81991 55.6731 4.94206C55.5161 4.97881 55.3494 4.9834 55.1869 4.98662C53.1937 5.02605 51.2005 5.07787 49.207 5.09006C48.6313 5.09359 48.2759 5.28647 48.0003 5.80674C46.2517 9.10767 44.5644 12.4343 43.5632 16.0544C43.3812 16.7127 43.2522 17.4028 43.226 18.0831C43.175 19.4055 43.9811 19.8952 45.1758 19.3233C46.5324 18.6738 47.5386 17.6055 48.5317 16.5187C50.1773 14.7178 51.0637 12.4843 52.1139 10.3405C52.2575 10.0475 52.544 9.73628 52.8374 9.62419C53.3248 9.43797 53.6833 9.86353 53.5126 10.3641C53.4078 10.6712 53.2654 10.9671 53.1224 11.2595C52.208 13.1303 51.2713 14.9904 50.3807 16.8723C50.0725 17.5235 49.8447 18.2182 49.6432 18.9113C49.5729 19.1531 49.608 19.6153 49.7434 19.6836C49.9608 19.7933 50.3606 19.7506 50.5792 19.6104C51.2016 19.2111 51.7975 18.76 52.3555 18.274C53.0923 17.6323 53.7724 16.9261 54.5007 16.274C54.7046 16.0914 54.9841 15.913 55.243 15.8898C55.6595 15.8524 55.787 15.6494 55.8763 15.2916C56.6185 12.3189 57.5437 9.40475 58.7222 6.57337C59.4467 4.83261 60.1982 3.10331 61.3407 1.58525C61.6644 1.15514 62.0552 0.760833 62.4708 0.417217C63.2801 -0.251835 64.1872 -0.104272 64.7516 0.774046C65.1535 1.39939 65.3259 2.09851 65.2351 2.84735C65.0414 4.44276 64.3034 5.82305 63.4011 7.09697C61.6218 9.60925 59.8124 12.1028 57.9328 14.5407C56.9568 15.8065 56.4271 17.1543 56.487 18.7397C56.4931 18.9018 56.5013 19.0678 56.5405 19.224C56.6801 19.7801 57.0924 20.0126 57.5544 19.6881C58.1705 19.2553 58.7318 18.7338 59.2683 18.2017C59.7555 17.7185 60.2064 17.1915 60.6185 16.6428C60.8836 16.2898 61.0755 15.8739 61.2546 15.4662C61.6103 14.6564 61.8909 13.8113 62.2841 13.0212C62.6667 12.2523 62.8927 12.2092 63.7103 12.5422C63.7861 12.3464 63.863 12.1514 63.9372 11.9554C64.5443 10.3511 66.1504 9.47072 67.8293 9.82235C69.0327 10.0744 69.8985 11.1576 69.9574 12.574C69.9843 13.2206 69.8997 13.8718 69.8646 14.5208C69.8554 14.6927 69.8421 14.8643 69.8203 15.1934C70.3728 14.9396 70.8369 14.7873 71.2344 14.5319C72.2369 13.8879 73.1702 13.2007 73.8992 12.1886C74.85 10.8686 76.1424 9.91987 77.8845 9.836C78.7458 9.79454 79.5591 9.89217 80.1421 10.6327C80.4284 10.9964 80.6603 10.9673 80.8582 10.5526C81.1074 10.0304 81.5125 9.79782 82.0945 9.90331C82.5395 9.98399 82.6524 10.2222 82.3705 10.5859C80.6681 12.7826 79.9339 15.4151 79.0185 17.9663C78.9892 18.048 78.9882 18.1398 78.9634 18.2925C79.1208 18.2481 79.247 18.2421 79.3382 18.1825C80.5654 17.3815 81.7992 16.5897 83.007 15.7601C83.7229 15.2683 84.216 14.5844 84.5669 13.781C85.0451 12.6864 85.5726 11.6131 86.0798 10.5311C86.2372 10.1954 86.4102 9.79906 86.8661 9.98507C87.349 10.1821 87.2867 10.6155 87.1063 11.0058C86.453 12.419 85.7385 13.8062 85.1413 15.2422C84.6852 16.3388 84.2984 17.4767 84.0172 18.6294C83.7847 19.5824 84.3705 20.0446 85.3223 19.7546C86.4807 19.4015 87.2906 18.56 88.0714 17.695C89.9919 15.5673 91.475 13.1482 92.7901 10.6176C93.0882 10.0441 93.4417 9.82239 93.7735 9.99006C94.1224 10.1663 94.1585 10.5643 93.8828 11.144C93.2219 12.5341 92.5615 13.9244 91.9043 15.3161C91.8221 15.4902 91.7602 15.6738 91.6889 15.853C91.7287 15.8958 91.7685 15.9385 91.8083 15.9813C92.011 15.8414 92.2316 15.7214 92.4136 15.5584C94.2536 13.9103 96.1888 12.3892 98.3482 11.1761C99.5874 10.48 100.886 9.93118 102.328 9.80496C103.574 9.69593 104.667 9.98735 105.509 10.9719C105.748 11.251 105.857 11.5442 105.562 11.8363C105.267 12.1288 104.95 12.0371 104.7 11.7717C103.771 10.7867 102.633 10.8287 101.468 11.1323C99.7929 11.5688 98.3353 12.4497 96.9463 13.4538C94.8586 14.963 92.8883 16.6011 91.0404 18.4055C90.1692 19.2561 89.5697 20.2102 89.03 21.2612C87.9882 23.2899 86.9178 25.3045 85.8228 27.305C85.1124 28.6029 84.2561 29.7896 82.8434 30.495C82.7032 30.5223 82.5871 30.5223 82.4054 30.4939C81.342 29.7969 81.4608 29.2632 81.8131 28.2523C81.9957 27.7286 82.2914 27.2372 82.5824 26.7594C84.221 24.0695 86.329 21.751 88.4318 19.4289C88.5642 19.2827 88.6689 19.1115 88.7865 18.9519C88.7442 18.9143 88.702 18.8766 88.6597 18.839C88.4519 19.0233 88.2458 19.2099 88.0358 19.3917C87.1818 20.1311 86.3057 20.8246 85.1371 21.011C83.7731 21.2286 82.8586 20.4916 82.829 19.1094C82.8216 18.7683 82.8803 18.4258 82.9072 18.0838C82.9217 17.8988 82.9332 17.7136 82.9531 17.4286C82.7238 17.5407 82.5959 17.593 82.4781 17.6624C81.3242 18.3425 80.1902 19.0595 79.0111 19.6926C78.46 19.9885 78.1254 20.3666 77.8995 20.9409C76.9972 23.2353 75.9678 25.4684 74.5134 27.4803C73.5356 28.8331 72.3884 29.9516 70.675 30.3136C70.5425 30.3416 70.4272 30.4508 70.3039 30.5223C70.2555 30.5223 70.2072 30.5223 70.1225 30.5223ZM26.6629 9.06508C27.4555 6.7264 28.248 4.38772 29.0406 2.04904C28.9705 1.99141 28.9003 1.93379 28.8301 1.87616C28.2228 2.24303 27.5826 2.56541 27.0139 2.98453C24.6653 4.71546 22.9891 7.06668 21.2286 9.33619C21.1087 9.49075 21.0839 9.71881 21.0149 9.91268C21.2133 9.97336 21.411 10.0838 21.6102 10.0866C22.8411 10.1036 24.0722 10.0978 25.3033 10.0968C26.326 10.0959 26.326 10.0942 26.6629 9.06508ZM77.0031 16.0804C78.1568 15.2373 78.9539 14.1047 79.5796 12.8479C79.9614 12.0809 79.4201 11.1231 78.5645 11.1128C78.0623 11.1068 77.5014 11.2197 77.0637 11.457C75.2922 12.4172 74.3557 13.9986 73.9451 15.9249C73.9155 16.064 73.9124 16.2135 73.9242 16.3559C73.9806 17.0396 74.3968 17.3721 75.0288 17.1213C75.6933 16.8576 76.3061 16.4641 77.0031 16.0804ZM73.2493 23.0859C72.4404 23.9341 71.5743 24.7362 70.8407 25.645C70.2416 26.387 69.7778 27.249 69.7668 28.2598C69.7584 29.0247 70.1225 29.3711 70.8189 29.0689C71.493 28.7765 72.2149 28.3675 72.6554 27.8062C74.1779 25.8662 75.3523 23.7 76.4091 21.4741C76.459 21.3689 76.4688 21.2448 76.5419 20.9496C75.2971 21.5749 74.3086 22.3147 73.2493 23.0859ZM60.9375 8.62372C61.4984 7.82504 62.1169 7.05967 62.6044 6.2186C63.1266 5.3177 63.5882 4.3688 63.9503 3.39418C64.1203 2.93645 64.0789 2.35313 63.9831 1.85557C63.8439 1.13282 63.3221 1.01872 62.8171 1.57322C62.4908 1.93149 62.2138 2.34161 61.9568 2.75458C60.2329 5.52457 59.147 8.57044 58.131 11.645C58.0848 11.7849 58.0912 11.942 58.0731 12.0912C58.1318 12.1222 58.1905 12.1533 58.2492 12.1843C59.1297 11.0181 60.0102 9.85184 60.9375 8.62372ZM64.5095 15.8257C63.8403 15.1098 63.632 14.2179 63.562 13.2586C62.5325 14.7834 61.9951 16.4138 62.2395 18.2309C62.4102 19.5004 63.1868 20.0126 64.4329 19.6896C65.8799 19.3144 66.794 18.2877 67.5157 17.0526C67.5282 17.0311 67.4999 16.9858 67.4666 16.8625C66.4115 16.8752 65.3792 16.6735 64.5095 15.8257ZM68.8867 13.1943C68.829 12.8403 68.8154 12.472 68.7055 12.1349C68.349 11.0411 67.4697 10.6378 66.393 11.0395C65.2075 11.4818 64.4976 12.8765 64.844 14.0826C65.1903 15.2885 66.4086 15.9498 67.7758 15.6964C68.1994 15.6178 68.4773 15.4064 68.5661 14.991C68.6864 14.428 68.7806 13.8595 68.8867 13.1943ZM83.7982 26.9917C83.4399 27.6576 83.0815 28.3235 82.7232 28.9895C83.7371 28.6564 86.296 24.7148 86.2028 23.768C85.2667 24.7885 84.5541 25.8574 83.7982 26.9917Z" fill="white"/>
</svg>
